<?xml version="1.0" encoding="UTF-8" standalone="no"?>
<!DOCTYPE svg PUBLIC "-//W3C//DTD SVG 1.1//EN"
 "http://www.w3.org/Graphics/SVG/1.1/DTD/svg11.dtd">
<!-- Generated by graphviz version 9.0.0 (20230911.1827)
 -->
<!-- Pages: 1 -->
<svg width="220pt" height="152pt"
 viewBox="0.00 0.00 219.62 151.64" xmlns="http://www.w3.org/2000/svg" xmlns:xlink="http://www.w3.org/1999/xlink">
<g id="graph0" class="graph" transform="scale(1 1) rotate(0) translate(4 147.64)">
<polygon fill="white" stroke="none" points="-4,4 -4,-147.64 215.62,-147.64 215.62,4 -4,4"/>
<!-- delta_x -->
<g id="node1" class="node">
<title>delta_x</title>
<polygon fill="lightgray" stroke="black" points="41.5,-143.64 0,-143.64 0,-124.39 41.5,-124.39 41.5,-143.64"/>
<text text-anchor="middle" x="20.75" y="-131.09" font-family="Times New Roman,serif" font-size="9.00">delta_x</text>
</g>
<!-- delta_y_top -->
<g id="node2" class="node">
<title>delta_y_top</title>
<polygon fill="lightgray" stroke="black" points="119.88,-143.64 59.62,-143.64 59.62,-124.39 119.88,-124.39 119.88,-143.64"/>
<text text-anchor="middle" x="89.75" y="-131.09" font-family="Times New Roman,serif" font-size="9.00">delta_y_top</text>
</g>
<!-- Jump or Not -->
<g id="node4" class="node">
<title>Jump or Not</title>
<ellipse fill="lightblue" stroke="black" cx="131.75" cy="-44.19" rx="44.19" ry="44.19"/>
<text text-anchor="middle" x="131.75" y="-41.27" font-family="Times New Roman,serif" font-size="9.00">Jump or Not</text>
</g>
<!-- delta_y_top&#45;&gt;Jump or Not -->
<g id="edge2" class="edge">
<title>delta_y_top&#45;&gt;Jump or Not</title>
<path fill="none" stroke="green" stroke-width="0.22" d="M94.09,-123.95C97.63,-116.55 102.93,-105.46 108.44,-93.93"/>
<polygon fill="green" stroke="green" stroke-width="0.22" points="111.59,-95.47 112.74,-84.94 105.27,-92.45 111.59,-95.47"/>
</g>
<!-- delta_y_bottom -->
<g id="node3" class="node">
<title>delta_y_bottom</title>
<polygon fill="lightgray" stroke="black" points="211.62,-143.64 137.88,-143.64 137.88,-124.39 211.62,-124.39 211.62,-143.64"/>
<text text-anchor="middle" x="174.75" y="-131.09" font-family="Times New Roman,serif" font-size="9.00">delta_y_bottom</text>
</g>
<!-- delta_y_bottom&#45;&gt;Jump or Not -->
<g id="edge1" class="edge">
<title>delta_y_bottom&#45;&gt;Jump or Not</title>
<path fill="none" stroke="green" stroke-width="0.28" d="M170.31,-123.95C166.62,-116.4 161.05,-105.03 155.28,-93.26"/>
<polygon fill="green" stroke="green" stroke-width="0.28" points="158.59,-92.06 151.05,-84.61 152.31,-95.13 158.59,-92.06"/>
</g>
</g>
</svg>
